<svg width="200" height="200" viewBox="0 0 200 200" fill="none" xmlns="http://www.w3.org/2000/svg">
<g clip-path="url(#clip0_1_12)">
<path d="M100 140C122.091 140 140 122.091 140 100C140 77.9086 122.091 60 100 60C77.9086 60 60 77.9086 60 100C60 122.091 77.9086 140 100 140Z" fill="white"/>
<path d="M100 137C120.435 137 137 120.435 137 100C137 79.5655 120.435 63 100 63C79.5655 63 63 79.5655 63 100C63 120.435 79.5655 137 100 137Z" stroke="#D5D5D5" stroke-width="3"/>
<path d="M105.274 105.996C105.274 103.922 102.474 103.456 99.074 103.286C91.72 102.82 86.874 100.618 86.784 94.184C86.494 81.4 112.814 81.4 112.62 94.184H104.396C104.396 90.248 95.3001 90.584 95.0101 94.1C94.8101 96.344 97.332 96.81 100.38 97.1C107.106 97.736 113.686 98.624 113.686 106.032C113.686 118.478 86.108 118.69 86.302 105.65H94.672C94.678 109.424 105.274 109.466 105.274 105.996Z" fill="black"/>
</g>
<defs>
<clipPath id="clip0_1_12">
<rect width="80" height="80" fill="white" transform="translate(60 60)"/>
</clipPath>
</defs>
</svg>
