<svg xmlns="http://www.w3.org/2000/svg" width="100" height="36" viewbox="0 0 100 36"><g opacity=".7"><path fill="none" d="M0 0h100v36H0z"/><path d="M37.69 33.534V31.46a1.23 1.23 0 00-1.3-1.314 1.279 1.279 0 00-1.161.588 1.214 1.214 0 00-1.092-.588 1.093 1.093 0 00-.968.491v-.408h-.719v3.3h.726v-1.832a.772.772 0 01.807-.878c.479 0 .721.311.721.871v1.839h.725v-1.832a.78.78 0 01.81-.878c.49 0 .726.311.726.871v1.839zm10.744-3.3h-1.175v-1h-.726v1h-.67v.657h.67v1.507c0 .768.3 1.224 1.148 1.224a1.69 1.69 0 00.9-.256l-.208-.615a1.325 1.325 0 01-.635.187c-.359 0-.477-.221-.477-.553v-1.493h1.175zm6.132-.083a.975.975 0 00-.871.484v-.4h-.712v3.3h.719v-1.853c0-.546.234-.85.705-.85a1.173 1.173 0 01.45.083l.222-.678a1.541 1.541 0 00-.512-.09zm-9.271.346a2.469 2.469 0 00-1.348-.346c-.836 0-1.376.4-1.376 1.058 0 .539.4.871 1.141.975l.339.048c.394.055.581.159.581.346 0 .256-.263.4-.754.4a1.762 1.762 0 01-1.1-.346l-.338.56a2.384 2.384 0 001.432.429c.954 0 1.507-.449 1.507-1.079 0-.58-.436-.885-1.154-.988l-.339-.048c-.311-.041-.56-.1-.56-.325 0-.242.235-.387.629-.387a2.132 2.132 0 011.03.283zm19.261-.346a.975.975 0 00-.872.484v-.4h-.711v3.3h.719v-1.853c0-.546.234-.85.705-.85a1.172 1.172 0 01.449.083l.222-.678a1.538 1.538 0 00-.512-.09zm-9.265 1.735a1.67 1.67 0 001.763 1.735 1.731 1.731 0 001.189-.394l-.345-.581a1.456 1.456 0 01-.865.3.987.987 0 01-1-1.058.987.987 0 011-1.058 1.456 1.456 0 01.865.3l.345-.581a1.731 1.731 0 00-1.189-.394 1.67 1.67 0 00-1.763 1.735zm6.734 0v-1.652h-.719v.4a1.254 1.254 0 00-1.044-.484 1.655 1.655 0 00-1.651 1.735 1.655 1.655 0 001.651 1.735 1.254 1.254 0 001.044-.484v.4h.719zm-2.675 0a.991.991 0 011-1.058.99.99 0 011 1.058.991.991 0 01-1 1.058.991.991 0 01-1-1.058zm-8.677-1.735a1.614 1.614 0 00-1.645 1.735 1.629 1.629 0 001.693 1.735 2.012 2.012 0 001.356-.463l-.354-.532a1.571 1.571 0 01-.96.346.918.918 0 01-.989-.809h2.455a3.48 3.48 0 00.013-.277 1.584 1.584 0 00-1.569-1.735zm-.013.643a.821.821 0 01.836.8h-1.714a.851.851 0 01.878-.8zm18.036 1.092v-2.979h-.718v1.728a1.255 1.255 0 00-1.044-.484 1.655 1.655 0 00-1.652 1.735 1.655 1.655 0 001.652 1.735 1.255 1.255 0 001.044-.484v.4h.718zm-2.674 0a.991.991 0 011-1.058.991.991 0 011 1.058.991.991 0 01-1 1.058.991.991 0 01-1-1.058zm-24.28 0v-1.652h-.719v.4a1.253 1.253 0 00-1.044-.484 1.655 1.655 0 00-1.651 1.735 1.655 1.655 0 001.651 1.735 1.253 1.253 0 001.044-.484v.4h.719zm-2.674 0a.99.99 0 011-1.058.99.99 0 01.995 1.058.991.991 0 01-.995 1.058.99.99 0 01-1.001-1.063zM49.4 24.951c.1.085.2.166.3.249a12.388 12.388 0 01-6.89 2.08 12.445 12.445 0 01-12.445-12.446A12.445 12.445 0 0142.81 2.388a12.389 12.389 0 016.89 2.08c-.1.083-.2.164-.3.249a13.4 13.4 0 00-4.614 10.117 13.4 13.4 0 004.612 10.112zm8.793-22.562a12.389 12.389 0 00-6.89 2.08c.1.083.2.164.3.249a13.408 13.408 0 014.614 10.116 13.41 13.41 0 01-4.614 10.117c-.1.085-.2.166-.3.249a12.389 12.389 0 006.89 2.08A12.446 12.446 0 0070.64 14.835 12.446 12.446 0 0058.192 2.384zm-7.691 2.665c-.159.126-.317.256-.471.39a12.416 12.416 0 00-4.283 9.39 12.415 12.415 0 004.283 9.39c.154.134.312.264.471.39.161-.126.317-.256.472-.39a12.414 12.414 0 004.282-9.39 12.415 12.415 0 00-4.282-9.39 13.758 13.758 0 00-.472-.39" fill="#fff"/></g></svg>