<svg xmlns="http://www.w3.org/2000/svg" width="82" height="36" viewbox="0 0 82 36"><g opacity=".7"><path fill="none" d="M.001 0h82v36h-82z"/><path d="M43.464 15.444h-1.687a.487.487 0 00-.4.214l-2.329 3.429-.987-3.3a.488.488 0 00-.467-.348h-1.659a.292.292 0 00-.277.387l1.859 5.456-1.748 2.466a.292.292 0 00.239.463h1.686a.488.488 0 00.4-.209l5.613-8.1a.292.292 0 00-.24-.459m-11.284 3.269a1.872 1.872 0 01-1.9 1.6 1.3 1.3 0 01-1.39-1.633 1.878 1.878 0 011.882-1.616 1.415 1.415 0 011.119.458 1.445 1.445 0 01.285 1.188m2.341-3.268h-1.678a.293.293 0 00-.289.247l-.073.469-.118-.17a2.392 2.392 0 00-1.984-.7 3.862 3.862 0 00-3.748 3.378 3.171 3.171 0 00.625 2.58 2.626 2.626 0 002.115.854 3.213 3.213 0 002.325-.961l-.075.467a.292.292 0 00.243.334.3.3 0 00.046 0h1.513a.487.487 0 00.481-.412l.908-5.749a.293.293 0 00-.245-.334.3.3 0 00-.044 0m-10.077.041c-.191 1.258-1.153 1.258-2.083 1.258h-.529l.371-2.35a.291.291 0 01.288-.246h.243c.633 0 1.231 0 1.539.36a1.17 1.17 0 01.17.978m-.4-3.285h-3.507a.488.488 0 00-.481.412l-1.418 8.993a.292.292 0 00.243.334.288.288 0 00.045 0h1.668a.488.488 0 00.481-.412l.383-2.426a.487.487 0 01.481-.412h1.11a3.6 3.6 0 003.992-3.333 2.7 2.7 0 00-.447-2.263 3.253 3.253 0 00-2.556-.9m37.473.254l-1.442 9.157a.293.293 0 00.289.338h1.448a.487.487 0 00.481-.412l1.419-8.993a.292.292 0 00-.243-.334.3.3 0 00-.046 0h-1.618a.291.291 0 00-.289.247m-4.32 6.266a1.873 1.873 0 01-1.9 1.6 1.3 1.3 0 01-1.39-1.633 1.878 1.878 0 011.882-1.616 1.416 1.416 0 011.119.458 1.447 1.447 0 01.285 1.188m2.341-3.269h-1.679a.293.293 0 00-.289.247l-.074.469-.117-.17a2.391 2.391 0 00-1.984-.7 3.862 3.862 0 00-3.749 3.378 3.174 3.174 0 00.626 2.58 2.625 2.625 0 002.115.854 3.216 3.216 0 002.325-.961l-.075.467a.292.292 0 00.243.334.3.3 0 00.046 0h1.512a.487.487 0 00.481-.412l.908-5.749a.293.293 0 00-.245-.334.273.273 0 00-.044 0m-10.077.041c-.192 1.258-1.153 1.258-2.083 1.258h-.529l.371-2.35a.292.292 0 01.289-.246h.243c.633 0 1.23 0 1.539.361a1.173 1.173 0 01.17.978m-.4-3.285h-3.507a.488.488 0 00-.481.412l-1.418 8.993a.292.292 0 00.243.334.288.288 0 00.045 0h1.8a.341.341 0 00.337-.287l.4-2.549a.487.487 0 01.481-.412h1.11a3.6 3.6 0 003.992-3.333 2.7 2.7 0 00-.447-2.263 3.253 3.253 0 00-2.556-.9" fill="#fff"/></g></svg>