<svg xmlns="http://www.w3.org/2000/svg" width="82" height="36" viewbox="0 0 82 36"><g opacity=".7"><path fill="none" d="M0 0h82v36H0z"/><path d="M41.981 15.558c-.024 1.887 1.682 2.94 2.967 3.566 1.32.643 1.763 1.054 1.758 1.629-.01.879-1.053 1.267-2.029 1.282a7.079 7.079 0 01-3.48-.828l-.614 2.871a10.207 10.207 0 003.769.7c3.56 0 5.889-1.757 5.9-4.482.014-3.458-4.783-3.649-4.75-5.195.011-.469.458-.969 1.439-1.1a6.379 6.379 0 013.342.586l.6-2.778a9.082 9.082 0 00-3.171-.582c-3.351 0-5.707 1.781-5.727 4.331m14.624-4.091a1.545 1.545 0 00-1.443.961L50.081 24.57h3.557l.708-1.956h4.347l.411 1.956h3.135l-2.736-13.1h-2.901m.5 3.54l1.027 4.92h-2.812l1.785-4.92m-19.434-3.54l-2.8 13.1h3.39l2.8-13.1h-3.389m-5.015 0l-3.528 8.918-1.427-7.583a1.58 1.58 0 00-1.563-1.335h-5.768l-.081.38a14.11 14.11 0 013.344 1.115 1.434 1.434 0 01.8 1.151l2.7 10.457h3.583l5.492-13.1h-3.559" fill="#fff"/></g></svg>