<?xml version="1.0" encoding="utf-8"?>
<!-- Generator: Adobe Illustrator 26.0.0, SVG Export Plug-In . SVG Version: 6.00 Build 0)  -->
<svg version="1.2" baseProfile="tiny" id="Layer_1" xmlns="http://www.w3.org/2000/svg" xmlns:xlink="http://www.w3.org/1999/xlink"
	 x="0px" y="0px" viewBox="0 0 500 121" overflow="visible" xml:space="preserve">
<g>
	<path d="M121.2,29.8c-0.3-0.5-0.8-0.8-1.4-0.8c-0.6,0-1.1,0.3-1.3,0.9l-23,53.8c-0.1,0.2-0.2,0.4-0.2,0.6c0,0.9,0.6,1.5,1.5,1.5
		c0.6,0,1.1-0.3,1.3-0.9l21.7-50.6L141.6,85c0.3,0.5,0.8,0.8,1.3,0.8c0.9,0,1.5-0.6,1.5-1.5c0-0.2,0-0.4-0.2-0.6L121.2,29.8z"/>
	<path d="M180,60.2c2.8-0.5,5.2-1.3,7.2-2.4c5-2.7,7.5-7.1,7.5-12.9s-2.5-10.2-7.5-12.9c-3.6-2-8-3-13.2-3h-19.2
		c-0.9,0-1.5,0.6-1.5,1.5c0,0.3,0.1,0.5,0.2,0.8l21,26.6c-0.2,0-0.3,0-0.4,0h-19.2c-0.9,0-1.5,0.6-1.5,1.4v25c0,0.9,0.6,1.5,1.5,1.5
		s1.5-0.6,1.5-1.5V60.8H174c0.9,0,1.7,0,2.6-0.1l19.2,24.5c0.3,0.4,0.7,0.7,1.3,0.7c0.9,0,1.4-0.6,1.4-1.5c0-0.3-0.1-0.5-0.2-0.7
		L180,60.2z M174,31.9c4.6,0,8.6,0.9,11.8,2.6c4,2.2,5.9,5.6,5.9,10.3s-2,8.1-6,10.3c-2.1,1.2-4.7,2-7.8,2.4l-20.2-25.6H174z"/>
	<path d="M249.7,60.2c-2.9-1.3-8.4-2.7-16.1-4.2c-7.5-1.4-12.8-2.7-15.6-3.9c-2.1-0.9-3.7-2-4.7-3.1c-1.1-1.2-1.6-2.6-1.6-4.1
		c0-1.4,0.5-2.9,1.4-4.3c0.9-1.5,2.3-2.9,4.1-4.1c4.3-2.9,9.9-4.4,16.7-4.4c4.5,0,8.5,0.6,12,1.8c3.5,1.2,6.2,2.8,8.2,4.7
		c0.3,0.3,0.7,0.4,1.1,0.4c0.9,0,1.4-0.6,1.4-1.4c0-0.4-0.2-0.8-0.4-1.1c-2.3-2.3-5.4-4.1-9.3-5.4c-3.8-1.3-8.2-2-13-2
		c-7.4,0-13.6,1.6-18.5,4.9c-2.1,1.5-3.8,3.2-4.9,5c-1.2,1.9-1.8,3.9-1.8,5.9c0,2.4,0.8,4.4,2.4,6.1c1.3,1.5,3.2,2.8,5.8,3.9
		c3,1.3,8.4,2.7,16.1,4.2c7.6,1.4,12.8,2.7,15.6,3.9c2.1,0.9,3.7,1.9,4.7,3.1c1.1,1.2,1.6,2.5,1.6,4c0,3.7-2.1,6.7-6.5,9.2
		c-4.2,2.4-9.3,3.7-15.1,3.7c-9.4,0-17.2-2.3-23.4-7l-0.1-0.1c-0.2-0.1-0.5-0.2-0.7-0.2c-0.9,0-1.5,0.6-1.5,1.5
		c0,0.5,0.2,0.9,0.6,1.2c6.7,5,15.2,7.5,25.2,7.5c6.3,0,11.8-1.3,16.6-4c5.3-3,8-7,8-11.8c0-2.3-0.8-4.3-2.4-6
		C254.2,62.5,252.3,61.2,249.7,60.2z"/>
	<path d="M292.7,29.8c-0.3-0.5-0.8-0.8-1.4-0.8c-0.6,0-1.1,0.3-1.3,0.9l-23,53.8c-0.1,0.2-0.2,0.4-0.2,0.6c0,0.9,0.6,1.5,1.5,1.5
		c0.6,0,1.1-0.3,1.3-0.9l21.7-50.6L313.1,85c0.3,0.5,0.8,0.8,1.3,0.8c0.9,0,1.5-0.6,1.5-1.5c0-0.2,0-0.4-0.2-0.6L292.7,29.8z"/>
	<path d="M364.7,82.9h-37V30.5c0-0.9-0.6-1.5-1.4-1.5c-0.9,0-1.5,0.6-1.5,1.5v53.8c0,0.9,0.6,1.5,1.5,1.5h38.4
		c0.9,0,1.5-0.6,1.5-1.5C366.2,83.5,365.6,82.9,364.7,82.9z"/>
	<path d="M398,29.8c-0.3-0.5-0.8-0.8-1.4-0.8c-0.6,0-1.1,0.3-1.3,0.9l-23,53.8c-0.1,0.2-0.2,0.4-0.2,0.6c0,0.9,0.6,1.5,1.5,1.5
		c0.6,0,1.1-0.3,1.3-0.9l21.7-50.6L418.4,85c0.3,0.5,0.8,0.8,1.3,0.8c0.9,0,1.5-0.6,1.5-1.5c0-0.2,0-0.4-0.2-0.6L398,29.8z"/>
	<path d="M470.1,29c-0.9,0-1.5,0.6-1.5,1.5v49.2l-35.8-50c-0.3-0.4-0.7-0.7-1.2-0.7c-0.9,0-1.5,0.6-1.5,1.5v53.8
		c0,0.9,0.6,1.5,1.5,1.5c0.9,0,1.5-0.6,1.5-1.5V35.1l35.8,50c0.3,0.4,0.7,0.7,1.3,0.7c0.9,0,1.5-0.6,1.5-1.5V30.5
		C471.6,29.6,471,29,470.1,29z"/>
	<g>
		<g>
			<path d="M30.3,48.6c-0.2,0.5-0.8,0.7-1.3,0.5c-0.5-0.2-0.7-0.8-0.5-1.3c1-2.3,2.4-4,3.7-4.8c0.7-0.4,1.4-0.6,2-0.6
				c0.7,0.1,1.4,0.4,1.9,1.1c0.6,0.9,1,2.4,1,4.5v16.5c0,2.8,0,5.6,0.9,7c0.7,1.1,2.2,1.1,5.3-1l8.6-5.7c0.5-0.3,1.1-0.2,1.4,0.3
				c0.3,0.5,0.2,1.1-0.3,1.4l-8.6,5.7c-4.4,2.9-6.8,2.5-8.1,0.3c-1.1-1.8-1.2-4.9-1.2-8V48c0-1.7-0.3-2.8-0.7-3.4
				c-0.1-0.2-0.3-0.3-0.4-0.3c-0.2,0-0.5,0.1-0.8,0.3C32.2,45.3,31.2,46.7,30.3,48.6"/>
			<path d="M43.3,60c-0.4-0.3-0.5-1-0.2-1.4c0.3-0.4,1-0.5,1.4-0.2l16.2,12.1c4.3,2.5,3.1,4.5,1.5,7.1c-0.8,1.3-1.7,2.7-1.7,4.5v2
				h6.2c0.6,0,1,0.4,1,1s-0.4,1-1,1h-7.2c-0.6,0-1-0.4-1-1v-3c0-2.3,1-4,2-5.5c1-1.6,1.7-2.8-0.8-4.3c0,0-0.1-0.1-0.1-0.1L43.3,60z"
				/>
			<path d="M57.5,68.9c0.5-0.3,1.1-0.1,1.4,0.3c0.3,0.5,0.1,1.1-0.3,1.4L41.2,81.1v3.2h4.7c0.6,0,1,0.4,1,1c0,0.6-0.4,1-1,1h-5.7
				c-0.6,0-1-0.4-1-1v-4.8h0c0-0.3,0.2-0.7,0.5-0.8L57.5,68.9z"/>
			<path d="M43.4,45.3c0-0.5,0.5-0.9,1.1-0.9c0.5,0,0.9,0.5,0.9,1.1c-0.3,3.7,0.4,6.3,2,8.4c1.6,2.2,4,3.9,6.8,5.7L69,68.8
				c0.5,0.3,0.6,0.9,0.3,1.4c-0.3,0.5-0.9,0.6-1.4,0.3l-14.8-9.2c-3-1.9-5.6-3.8-7.4-6.2C43.9,52.6,43,49.5,43.4,45.3"/>
			<path d="M45.7,40.7c0.1-0.5,0.5-0.9,1.1-0.9c0.5,0.1,0.9,0.5,0.9,1.1c0,0-0.2,1.9,3.3,2v0h13.6c0.6,0,1,0.4,1,1c0,0.6-0.4,1-1,1
				H51v0l0,0C45.3,44.7,45.7,40.7,45.7,40.7"/>
			<path d="M48.7,43.7c0-0.5,0.5-1,1-1c0.5,0,1,0.5,1,1c-0.1,3.6,0.4,6.2,1.4,8.1c0.8,1.5,1.9,2.5,3.3,2.9l0,0
				c1.4,0.5,3,0.4,4.7-0.1c2.8-0.8,5.9-2.8,8.8-5.9c0.4-0.4,1-0.4,1.4,0c0.4,0.4,0.4,1,0,1.4c-3.1,3.3-6.5,5.5-9.6,6.4
				c-2.1,0.6-4.1,0.7-5.9,0.1l-0.1,0c-1.8-0.6-3.3-1.9-4.4-3.9C49.2,50.7,48.6,47.7,48.7,43.7"/>
			<path d="M54.4,43.7c0.1-0.5,0.6-0.9,1.1-0.9c0.5,0.1,0.9,0.6,0.9,1.1c-0.2,1.4-0.3,3.4,0.4,4.9c0.5,1.3,1.8,2.1,4.3,1.5
				c0.5-0.1,1.1,0.2,1.2,0.8c0.1,0.5-0.2,1.1-0.8,1.2c-3.8,0.8-5.7-0.6-6.6-2.7C54.1,47.8,54.2,45.3,54.4,43.7"/>
		</g>
		<path d="M52.2,33.8l1.9,3.2c0.1,0.2,0.4,0.4,0.7,0.4h0c0.6,0,1-0.7,0.7-1.2L53.6,33c-0.1-0.2-0.4-0.4-0.7-0.4h0
			C52.3,32.6,51.9,33.3,52.2,33.8z M58.8,31.4l-1.9,3.2c-0.1,0.2-0.1,0.6,0,0.8l0,0c0.3,0.5,1.1,0.5,1.4,0l0.6-1.1l1.2-2.1
			c0.1-0.2,0.1-0.6,0-0.8l0,0C59.8,30.9,59.1,30.9,58.8,31.4z M55.3,32.6l0.5,0.8l2.6-4.4c0.1-0.2,0.1-0.6,0-0.8l0,0
			c-0.3-0.5-1.1-0.5-1.4,0L55,31.4c-0.1,0.2-0.1,0.5,0,0.8L55.3,32.6z M62.2,32.6L62.2,32.6c-0.3,0-0.6,0.2-0.7,0.4l-1.9,3.2
			c-0.3,0.5,0.1,1.2,0.7,1.2h0c0.3,0,0.6-0.2,0.7-0.4l1.9-3.2C63.2,33.3,62.9,32.6,62.2,32.6z M65.7,35.4l1-1.6
			c0.3-0.5-0.1-1.2-0.7-1.2h0c-0.3,0-0.6,0.2-0.7,0.4l-1.9,3.2c-0.3,0.5,0.1,1.2,0.7,1.2h0c0.3,0,0.6-0.2,0.7-0.4L65.7,35.4z
			 M63.8,39H51.4c-0.4,0-0.8,0.4-0.8,0.8v0c0,0.4,0.4,0.8,0.8,0.8h12.3c0.4,0,0.8-0.4,0.8-0.8v0C64.6,39.4,64.2,39,63.8,39z
			 M51.8,36.2L49.9,33c-0.1-0.2-0.4-0.4-0.7-0.4h0c-0.6,0-1,0.7-0.7,1.2l1,1.6l0.9,1.6c0.1,0.2,0.4,0.4,0.7,0.4h0
			C51.7,37.4,52.1,36.8,51.8,36.2z"/>
	</g>
	<rect x="80.2" y="18.3" width="1.2" height="84.3"/>
</g>
</svg>
